<svg width="24" height="24" viewBox="0 0 24 24" fill="none" xmlns="http://www.w3.org/2000/svg">
<path d="M3.65809 13.3342L6.56091 15.8125C6.63064 15.8719 6.7136 15.9191 6.80501 15.9513C6.89641 15.9834 6.99445 16 7.09347 16C7.19249 16 7.29053 15.9834 7.38193 15.9513C7.47334 15.9191 7.5563 15.8719 7.62603 15.8125C7.76573 15.6938 7.84415 15.5331 7.84415 15.3657C7.84415 15.1982 7.76573 15.0376 7.62603 14.9188L4.95574 12.6433L20.2499 12.6433C20.4489 12.6433 20.6396 12.5766 20.7803 12.4577C20.921 12.3388 21 12.1776 21 12.0095V12.0095C21 11.8414 20.921 11.6802 20.7803 11.5613C20.6396 11.4425 20.4489 11.3757 20.2499 11.3757L4.91073 11.3757L7.62603 9.08753C7.69633 9.02861 7.75214 8.95851 7.79022 8.88127C7.8283 8.80403 7.8479 8.72118 7.8479 8.63751C7.8479 8.55384 7.8283 8.47099 7.79022 8.39375C7.75214 8.31651 7.69633 8.24641 7.62603 8.18749C7.5563 8.12808 7.47334 8.08093 7.38193 8.04875C7.29053 8.01657 7.19249 8 7.09347 8C6.99445 8 6.89641 8.01657 6.80501 8.04875C6.7136 8.08093 6.63064 8.12808 6.56091 8.18749L3.65809 10.6468C3.23669 11.0033 3 11.4866 3 11.9905C3 12.4944 3.23669 12.9777 3.65809 13.3342Z" fill="#020166"/>
</svg>
